<svg xmlns="http://www.w3.org/2000/svg" width="313" height="73" viewBox="0 0 313 73" fill="none">
<g clip-path="url(#clip0_1710_4343)">
<path d="M271.481 28.1544C264.267 28.1544 259.262 33.4767 259.262 41.5661C259.262 49.6556 264.267 54.865 271.905 54.865C277.595 54.865 281.082 52.2814 283.016 49.3309L279.381 45.5403C278.435 47.7003 276.437 50.0156 271.954 50.0156C267.902 50.0156 265.213 47.545 264.895 42.9567H283.249C283.391 42.1052 283.461 41.2435 283.461 40.3803C283.44 33.265 279.176 28.1544 271.481 28.1544ZM264.951 39.1661C265.424 35.0014 267.846 32.8979 271.481 32.8979C275.378 32.8979 277.701 35.1073 278.117 39.1661H264.951ZM118.365 19.0414H147.965V24.3073H136.112V54.3356H130.161V24.3073H118.365V19.0414ZM116.445 54.3356H91.7373V19.0414H117.708L113.24 24.3073H97.7095V33.6885H114.482V38.9544H97.7236V49.0697H116.445V54.3356ZM189.819 19.0414H197.076V54.3356H191.125V37.7403L191.831 26.1003L187.779 36.2156L181.666 48.385H175.658L169.545 36.2156L165.429 26.1003L166.269 37.7403V54.3356H160.318V19.0414H167.639L175.228 34.5285L178.722 43.5356L182.252 34.5285L189.819 19.0414ZM311.437 28.6838L301.935 56.1285C300.093 61.2885 297.085 63.1379 292.92 63.1379C291.359 63.1558 289.815 62.8129 288.408 62.1358C287.001 61.4587 285.769 60.4657 284.809 59.2344L287.633 54.4979C289.002 56.4461 290.584 57.9214 292.949 57.9214C294.953 57.9214 296.217 57.025 297.184 54.1803L297.657 52.7685H294.022L285.55 28.6979H292.031L296.612 43.225L298.455 50.072L300.297 43.225L304.886 28.6838H311.437ZM214.336 28.1544C206.966 28.1544 201.905 33.5261 201.905 41.5661C201.905 49.6061 206.959 54.865 214.315 54.865C221.798 54.865 226.859 49.4932 226.859 41.5379C226.859 33.5826 221.784 28.1544 214.315 28.1544H214.336ZM214.393 49.9661C210.602 49.9661 207.962 47.4391 207.962 41.5379C207.962 35.6367 210.602 33.0673 214.393 33.0673C218.184 33.0673 220.873 35.5944 220.873 41.5379C220.873 47.4814 218.254 49.9661 214.372 49.9661H214.393ZM254.567 36.4767V54.3356H248.609V38.2697C248.609 35.1073 247.557 32.9473 243.604 32.9473C240.032 32.9473 237.808 34.9026 237.808 39.8367V54.3356H231.907V28.6838H237.505V34.3309H237.611C238.952 30.1732 241.903 28.1473 246.498 28.1473C251.51 28.1544 254.567 31.1544 254.567 36.4767Z" fill="white"/>
<path d="M57.3724 36.6885H62.0174C62.0081 43.5525 59.277 50.1328 54.4231 54.9864C49.5691 59.84 42.9884 62.5709 36.1239 62.5802V57.9355C41.7576 57.9299 47.159 55.6896 51.1427 51.7062C55.1263 47.7228 57.3668 42.3218 57.3724 36.6885ZM65.6177 36.6885C65.6083 44.5073 62.498 52.0032 56.9688 57.532C51.4397 63.0607 43.9433 66.1709 36.1239 66.1802V71.9826C45.4851 71.9826 54.4629 68.2641 61.0823 61.6452C67.7017 55.0262 71.4204 46.049 71.4204 36.6885H65.6177ZM36.1239 54.3355C40.8045 54.3355 45.2934 52.4763 48.6031 49.1668C51.9128 45.8574 53.7722 41.3688 53.7722 36.6885H50.059C50.059 40.384 48.5908 43.9282 45.9775 46.5414C43.3642 49.1545 39.8197 50.6226 36.1239 50.6226V54.3355ZM48.1882 29.7214L66.6907 19.0414C65.6649 17.2607 64.4838 15.5741 63.161 14.0014L46.7976 27.7379C47.3157 28.359 47.7809 29.0225 48.1882 29.7214ZM48.2024 3.512C46.268 2.81433 44.2769 2.2853 42.2514 1.93082L38.5452 22.9732C39.3432 23.111 40.1275 23.3189 40.8889 23.5943L48.2024 3.512ZM49.8401 34.2673L70.8769 30.5614C70.5281 28.5355 70.0013 26.5442 69.3026 24.6108L49.2189 31.9238C49.4944 32.6852 49.7023 33.4694 49.8401 34.2673ZM45.0751 26.0155L58.8125 9.64611C57.2378 8.32801 55.5513 7.14944 53.7722 6.12376L43.0914 24.6249C43.7903 25.0322 44.4539 25.4974 45.0751 26.0155ZM36.1239 22.7543V1.39435C26.7627 1.39435 17.7849 5.11282 11.1655 11.7318C4.54612 18.3507 0.827393 27.3279 0.827393 36.6885H22.1888C22.1944 32.9946 23.6644 29.4537 26.2765 26.8417C28.8886 24.2298 32.4298 22.7599 36.1239 22.7543ZM24.829 47.1285C25.1021 46.8019 25.2723 46.4018 25.318 45.9786C25.3637 45.5554 25.2829 45.1281 25.0859 44.7508C24.8889 44.3735 24.5844 44.063 24.2109 43.8587C23.8375 43.6543 23.4119 43.5653 22.9878 43.6027C22.5638 43.6402 22.1604 43.8025 21.8285 44.0692C21.4967 44.3359 21.2514 44.6949 21.1236 45.1009C20.9958 45.5069 20.9912 45.9417 21.1105 46.3504C21.2297 46.759 21.4674 47.1231 21.7935 47.3967C22.0083 47.5831 22.2584 47.7244 22.5289 47.812C22.7995 47.8997 23.0849 47.932 23.3682 47.9069C23.6515 47.8819 23.9269 47.8001 24.1778 47.6663C24.4288 47.5326 24.6503 47.3497 24.829 47.1285ZM22.7112 39.6955C22.4985 39.3246 22.1804 39.0252 21.7972 38.8351C21.4141 38.6451 20.9832 38.5731 20.5591 38.6282C20.1351 38.6833 19.7369 38.863 19.415 39.1446C19.0932 39.4262 18.8622 39.7969 18.7512 40.2099C18.6403 40.6229 18.6545 41.0595 18.7919 41.4645C18.9294 41.8694 19.1839 42.2244 19.5233 42.4846C19.8627 42.7447 20.2717 42.8982 20.6985 42.9257C21.1253 42.9533 21.5506 42.8535 21.9206 42.6391C22.1695 42.5014 22.3882 42.315 22.5635 42.091C22.7389 41.867 22.8673 41.6099 22.941 41.3352C23.0148 41.0604 23.0325 40.7737 22.993 40.492C22.9535 40.2102 22.8577 39.9394 22.7112 39.6955ZM18.6874 60.0673C18.0616 59.8392 17.3821 59.8018 16.735 59.96C16.0879 60.1181 15.5022 60.4646 15.0521 60.9556C14.602 61.4466 14.3076 62.0601 14.2062 62.7185C14.1049 63.3768 14.2011 64.0504 14.4827 64.6541C14.7643 65.2578 15.2186 65.7643 15.7882 66.1098C16.3578 66.4552 17.017 66.6239 17.6825 66.5946C18.348 66.5652 18.9899 66.3392 19.5269 65.945C20.0639 65.5509 20.4719 65.0063 20.6993 64.3802C20.8511 63.965 20.9195 63.5239 20.9005 63.0822C20.8815 62.6405 20.7755 62.2069 20.5886 61.8062C20.4017 61.4055 20.1376 61.0457 19.8113 60.7473C19.4851 60.4489 19.1032 60.2178 18.6874 60.0673ZM30.0247 56.7638C29.491 56.7624 28.969 56.9193 28.5246 57.2148C28.0802 57.5102 27.7334 57.9308 27.5283 58.4234C27.3231 58.916 27.2687 59.4584 27.3719 59.9819C27.4752 60.5055 27.7314 60.9866 28.1083 61.3644C28.4851 61.7422 28.9656 61.9997 29.4889 62.1044C30.0122 62.209 30.5548 62.156 31.0479 61.9521C31.5411 61.7482 31.9627 61.4026 32.2593 60.959C32.5559 60.5155 32.7143 59.9938 32.7143 59.4602C32.7143 58.7463 32.4311 58.0615 31.9269 57.556C31.4227 57.0505 30.7386 56.7656 30.0247 56.7638ZM27.7375 64.6202C27.0715 64.6202 26.4204 64.8177 25.8667 65.1877C25.3129 65.5577 24.8813 66.0835 24.6265 66.6988C24.3716 67.314 24.3049 67.991 24.4349 68.6442C24.5648 69.2973 24.8855 69.8973 25.3564 70.3682C25.8273 70.839 26.4273 71.1597 27.0805 71.2896C27.7337 71.4196 28.4108 71.3529 29.0261 71.098C29.6413 70.8432 30.1672 70.4116 30.5372 69.8579C30.9073 69.3042 31.1047 68.6532 31.1047 67.9873C31.1047 67.0943 30.75 66.2379 30.1185 65.6064C29.487 64.975 28.6305 64.6202 27.7375 64.6202ZM32.0366 49.7967C31.6177 49.7967 31.2083 49.9209 30.86 50.1536C30.5117 50.3863 30.2403 50.717 30.08 51.104C29.9197 51.4909 29.8778 51.9167 29.9595 52.3275C30.0412 52.7383 30.2429 53.1156 30.5391 53.4118C30.8352 53.7079 31.2126 53.9096 31.6234 53.9913C32.0342 54.073 32.46 54.0311 32.847 53.8708C33.234 53.7105 33.5647 53.4391 33.7974 53.0908C34.0302 52.7426 34.1544 52.3332 34.1544 51.9143C34.1553 51.6357 34.1012 51.3595 33.9952 51.1018C33.8892 50.844 33.7333 50.6098 33.5366 50.4124C33.3398 50.215 33.106 50.0584 32.8486 49.9515C32.5912 49.8446 32.3153 49.7896 32.0366 49.7896V49.7967ZM25.1326 56.9261C25.3157 56.4249 25.3461 55.8807 25.2198 55.3622C25.0934 54.8438 24.8161 54.3745 24.4229 54.0137C24.0297 53.653 23.5383 53.417 23.0109 53.3356C22.4835 53.2542 21.9439 53.3312 21.4602 53.5567C20.9766 53.7821 20.5707 54.1461 20.294 54.6023C20.0173 55.0586 19.8821 55.5867 19.9057 56.1198C19.9293 56.6528 20.1106 57.1669 20.4265 57.597C20.7425 58.027 21.1789 58.3536 21.6806 58.5355C22.3527 58.7785 23.0939 58.7448 23.7411 58.4417C24.3884 58.1386 24.8889 57.5909 25.1326 56.9191V56.9261ZM11.7199 52.6908C11.2102 52.2621 10.5849 51.9941 9.92292 51.9208C9.26095 51.8474 8.5921 51.972 8.00095 52.2788C7.40981 52.5856 6.92292 53.0608 6.60187 53.6443C6.28082 54.2278 6.14003 54.8934 6.1973 55.5569C6.25457 56.2204 6.50733 56.852 6.92362 57.3719C7.33991 57.8917 7.90102 58.2765 8.53599 58.4774C9.17096 58.6784 9.85128 58.6866 10.4909 58.5009C11.1305 58.3152 11.7007 57.9441 12.1293 57.4343C12.7073 56.7545 12.9918 55.8731 12.9204 54.9837C12.8489 54.0943 12.4273 53.2696 11.7481 52.6908H11.7199ZM26.3256 51.6532C26.7255 51.7985 27.1594 51.8222 27.5727 51.7212C27.986 51.6201 28.3601 51.3989 28.6478 51.0854C28.9354 50.7719 29.1238 50.3802 29.189 49.9598C29.2542 49.5394 29.1934 49.1091 29.0142 48.7232C28.835 48.3373 28.5455 48.0132 28.1823 47.7917C27.819 47.5702 27.3983 47.4613 26.9731 47.4787C26.548 47.4961 26.1376 47.6391 25.7937 47.8896C25.4498 48.1401 25.1878 48.4869 25.0408 48.8861C24.9379 49.1517 24.8897 49.4353 24.8989 49.72C24.9082 50.0046 24.9748 50.2845 25.0947 50.5428C25.2147 50.8012 25.3855 51.0326 25.597 51.2234C25.8085 51.4142 26.0563 51.5604 26.3256 51.6532ZM7.73845 43.3873C7.40556 42.8101 6.90893 42.3447 6.3114 42.0499C5.71387 41.7552 5.04232 41.6443 4.38173 41.7313C3.72114 41.8183 3.10122 42.0993 2.60043 42.5388C2.09963 42.9783 1.74048 43.5564 1.56844 44.2001C1.39639 44.8437 1.41917 45.5239 1.63391 46.1546C1.84865 46.7853 2.24568 47.3382 2.77476 47.7431C3.30384 48.1481 3.94118 48.387 4.60611 48.4297C5.27104 48.4723 5.93367 48.3167 6.51013 47.9826C6.89287 47.7618 7.22831 47.4678 7.49725 47.1172C7.76619 46.7667 7.96335 46.3665 8.07745 45.9397C8.19154 45.5128 8.22032 45.0677 8.16215 44.6297C8.10398 44.1917 7.96 43.7696 7.73845 43.3873ZM18.878 51.9426C19.2211 51.5341 19.4353 51.0331 19.4936 50.5029C19.5519 49.9727 19.4516 49.4372 19.2054 48.964C18.9592 48.4908 18.5782 48.1012 18.1106 47.8446C17.643 47.5879 17.1098 47.4757 16.5784 47.5221C16.047 47.5686 15.5413 47.7715 15.1253 48.1054C14.7092 48.4392 14.4016 48.8889 14.2412 49.3976C14.0808 49.9063 14.0749 50.4512 14.2242 50.9632C14.3736 51.4753 14.6714 51.9316 15.0801 52.2743C15.6286 52.7319 16.3359 52.9539 17.0475 52.8917C17.7591 52.8296 18.4172 52.4883 18.878 51.9426ZM15.6872 41.4461C15.417 40.9907 15.0183 40.6252 14.5411 40.3954C14.064 40.1656 13.5296 40.0818 13.005 40.1545C12.4804 40.2272 11.9889 40.4532 11.5923 40.804C11.1956 41.1549 10.9113 41.615 10.7751 42.1268C10.6388 42.6385 10.6568 43.1791 10.8265 43.6807C10.9963 44.1823 11.3104 44.6226 11.7295 44.9465C12.1485 45.2703 12.6539 45.4632 13.1821 45.501C13.7104 45.5389 14.238 45.4199 14.6989 45.159C15.0096 44.9821 15.2821 44.7451 15.5003 44.4619C15.7186 44.1787 15.8784 43.855 15.9704 43.5095C16.0623 43.1639 16.0847 42.8036 16.0361 42.4493C15.9874 42.0951 15.8689 41.7541 15.6872 41.4461Z" fill="#00B852"/>
</g>
<defs>
<clipPath id="clip0_1710_4343">
<rect width="312" height="72" fill="white" transform="translate(0.121582 0.688477)"/>
</clipPath>
</defs>
</svg>