<svg height="200px" width="200px" version="1.1" id="Layer_1" xmlns="http://www.w3.org/2000/svg" xmlns:xlink="http://www.w3.org/1999/xlink" viewBox="0 0 300.16 300.16" xml:space="preserve" fill="#fff" stroke="#fff"><g id="SVGRepo_bgCarrier" stroke-width="0"></g><g id="SVGRepo_tracerCarrier" stroke-linecap="round" stroke-linejoin="round"></g><g id="SVGRepo_iconCarrier"> <g> <g> <path style="fill:#F9BA48;" d="M174.286,87.143c-24.027,0-43.572-19.544-43.572-43.572S150.259,0,174.286,0 s43.572,19.544,43.572,43.572S198.314,87.143,174.286,87.143z"></path> <path style="fill:#;" d="M179.128,38.73h-9.683c-2.672,0-4.841-2.174-4.841-4.841s2.169-4.841,4.841-4.841h9.683 c2.672,0,4.841,2.174,4.841,4.841h9.683c0-8.007-6.516-14.524-14.524-14.524v-4.841h-9.683v4.841 c-8.007,0-14.524,6.516-14.524,14.524s6.516,14.524,14.524,14.524h9.683c2.672,0,4.841,2.174,4.841,4.841 c0,2.668-2.169,4.841-4.841,4.841h-9.683c-2.672,0-4.841-2.174-4.841-4.841h-9.683c0,8.007,6.516,14.524,14.524,14.524v4.841 h9.683v-4.841c8.007,0,14.524-6.516,14.524-14.524S187.135,38.73,179.128,38.73z"></path> <path style="fill:#;" d="M242.064,101.667c-23.122,0-42.037,18.116-43.436,40.889l-19.501,13.004V82.302h-9.683v49.052 l-19.501-12.999c-0.721-11.774-6.124-22.28-14.388-29.701v-6.352c0-8.007-6.516-14.524-14.524-14.524 c-6.318,0-11.648,4.081-13.643,9.726c-0.295-0.005-0.581-0.044-0.881-0.044h-4.841v4.841c0,1.622,0.107,3.215,0.276,4.788 c-0.102,0.01-0.169,0.053-0.276,0.053c-2.672,0-4.841-2.174-4.841-4.841c0-8.007-6.516-14.524-14.524-14.524 s-14.524,6.516-14.524,14.524c0,2.668-2.169,4.841-4.841,4.841s-4.841-2.174-4.841-4.841c0-8.007-6.516-14.524-14.524-14.524 s-14.524,6.516-14.524,14.524v9.683c0,12.708,4.415,24.637,12.384,34.107c-6.986,1.041-12.384,7.03-12.384,14.306 c0,4.343,1.956,8.196,4.982,10.864C12.834,166.632,0,191.328,0,217.858c0,45.382,36.92,82.302,82.302,82.302 c4.754,0,9.62-0.465,14.524-1.36v1.36h125.873v-9.683h-38.73v-9.683h9.683v-9.683h-19.365v-9.683h9.683v-9.683h-14.524v-9.683 h9.683v-4.841v-4.841v-9.683h4.841v-4.841v-4.841v-9.683h9.683v-9.683h-14.524v-26.458l25.794-17.196 c23.287-0.842,41.984-19.999,41.984-43.489v-4.841h-4.843V101.667z M139.991,115.784c-14.495-2.261-25.973-13.74-28.234-28.234 C126.251,89.811,137.73,101.289,139.991,115.784z M117.575,78.913c0.881-0.896,2.106-1.452,3.457-1.452 c2.571,0,4.686,2.019,4.832,4.556c-0.015,0.005-0.029,0.01-0.044,0.019c-2.605-1.297-5.354-2.329-8.22-3.089 C117.59,78.932,117.585,78.927,117.575,78.913z M38.73,82.302c0-2.668,2.169-4.841,4.841-4.841s4.841,2.174,4.841,4.841 c0,8.007,6.516,14.524,14.524,14.524S77.46,90.31,77.46,82.302c0-2.668,2.169-4.841,4.841-4.841c2.672,0,4.841,2.174,4.841,4.841 c0,8.007,6.516,14.524,14.524,14.524c0.818,0,1.622-0.068,2.416-0.203c0.034,0.044,0.063,0.087,0.102,0.136 c2.764,7.819,7.673,14.621,14.054,19.68c0.005,0.005,0.01,0.015,0.015,0.024c-2.43,3.554-5.364,6.749-8.651,9.411h-54.6 c-10.36-8.332-16.272-20.595-16.272-33.889C38.73,91.985,38.73,82.302,38.73,82.302z M43.572,135.556h8.162h61.141h8.158 c2.672,0,4.841,2.174,4.841,4.841c0,2.668-2.169,4.841-4.841,4.841h-0.005H43.576h-0.005c-2.672,0-4.841-2.174-4.841-4.841 S40.899,135.556,43.572,135.556z M82.302,290.477c-40.042,0-72.619-32.577-72.619-72.619c0-25.973,13.924-49.972,36.416-62.937 H118.5c15.003,8.656,26.438,22.512,32.195,38.73h-36.576c-3.81-8.68-12.466-14.524-22.139-14.524h-4.841v-14.524h-9.683v14.524 h-4.841c-13.347,0-24.206,10.859-24.206,24.206s10.859,24.206,24.206,24.206H91.98v14.524h9.683v10.719 c-2.653,2.392-6.076,3.805-9.678,3.805H72.619c-8.007,0-14.524-6.516-14.524-14.524v-4.841h-9.683v4.841 c0,13.347,10.859,24.206,24.206,24.206h4.841v14.524h9.683v-14.524h4.841c5.243,0,10.297-1.753,14.446-4.841h0.077v9.683h-9.683 v17.748C91.912,289.872,87.027,290.477,82.302,290.477z M91.984,188.81c4.207,0,8.08,1.849,10.782,4.841h-5.94v19.365h-4.841 v4.841H72.619c-8.007,0-14.524-6.516-14.524-14.524c0-8.007,6.516-14.524,14.524-14.524L91.984,188.81L91.984,188.81z M121.032,232.382v-9.683h9.683v9.683H121.032z M125.873,213.017v-9.683h9.683v9.683H125.873z M116.191,213.017h-9.683v-9.683 h9.683V213.017z M101.667,222.699h9.683v9.683h-9.683V222.699z M121.032,242.064v9.683h-9.683v-9.683H121.032z M116.191,261.429 h9.683v9.683h-9.683V261.429z M135.556,280.795v9.683h-9.683v-9.683H135.556z M145.239,280.795h9.683v9.683h-9.683V280.795z M135.556,271.112v-9.683h9.683v9.683H135.556z M130.715,251.747v-9.683h9.683v9.683H130.715z M140.397,232.382v-9.683h9.683 v9.683H140.397z M145.239,213.017v-9.683h9.683v9.683H145.239z M106.508,280.795h9.683v9.683h-9.683V280.795z M174.286,290.477 h-9.683v-9.683h9.683V290.477z M164.604,271.112h-9.683v-9.683h9.683V271.112z M159.762,251.747h-9.683v-9.683h9.683V251.747z M169.445,232.382h-9.683v-9.683h9.683V232.382z M174.286,213.017h-9.683v-9.683h9.683V213.017z M160.827,193.651 c-5.258-17.003-15.938-31.919-30.292-42.361c3.05-2.663,5.02-6.536,5.02-10.893c0-7.32-5.461-13.328-12.505-14.321 c1.21-1.448,2.343-2.958,3.394-4.527c5.248,2.522,11.062,4.018,17.206,4.241l25.794,17.196v50.664h-8.617V193.651z M208.582,139.991c2.261-14.495,13.74-25.973,28.234-28.234C234.555,126.251,223.077,137.73,208.582,139.991z"></path> <path style="fill:#F9BA48;" d="M237.223,300.16c-34.702,0-62.937-28.234-62.937-62.937s28.234-62.937,62.937-62.937 s62.937,28.234,62.937,62.937S271.925,300.16,237.223,300.16z"></path> <path style="fill:#;" d="M271.112,222.699v-2.421c0-12.011-9.775-21.786-21.786-21.786h-7.262v-9.683h-9.683v9.683h-7.262 c-12.011,0-21.786,9.775-21.786,21.786s9.775,21.786,21.786,21.786h24.206c6.676,0,12.103,5.432,12.103,12.103 s-5.427,12.103-12.103,12.103H225.12c-6.676,0-12.103-5.432-12.103-12.103v-2.421h-9.683v2.421 c0,12.011,9.775,21.786,21.786,21.786h7.262v9.683h9.683v-9.683h7.262c12.011,0,21.786-9.775,21.786-21.786 s-9.775-21.786-21.786-21.786H225.12c-6.676,0-12.103-5.432-12.103-12.103c0-6.671,5.427-12.103,12.103-12.103h24.206 c6.676,0,12.103,5.432,12.103,12.103v2.421L271.112,222.699L271.112,222.699z"></path> </g> </g> </g></svg>